<svg width="28" height="28" viewBox="0 0 28 28" fill="none" xmlns="http://www.w3.org/2000/svg">
<path d="M15.4 12.6V7.00002H12.6V12.6H7V15.4H12.6V21H15.4V15.4H21V12.6H15.4Z" fill="#F9F5FF"/>
<path d="M14 0C6.26803 0 0 6.26803 0 14C0 21.7319 6.26803 27.9999 14 27.9999C21.7319 27.9999 27.9999 21.7319 27.9999 14C27.9999 6.26803 21.732 0 14 0ZM14 25.466C7.66749 25.466 2.53398 20.3324 2.53398 14C2.53398 7.66749 7.66749 2.53398 14 2.53398C20.3292 2.54165 25.4582 7.67064 25.466 14C25.466 20.3325 20.3325 25.466 14 25.466Z" fill="#F9F5FF"/>
</svg>
