<svg width="35" height="32" viewBox="0 0 35 32" fill="#F9F5FF" xmlns="http://www.w3.org/2000/svg">
<path d="M33.5417 25.3333H29.6581C29.0267 23.412 27.0958 22 24.7917 22C22.4876 22 20.5581 23.412 19.9253 25.3333H1.45831C0.653311 25.3333 0 25.9307 0 26.6667C0 27.4027 0.653311 28 1.45831 28H19.9252C20.5566 29.9213 22.4875 31.3333 24.7916 31.3333C27.0957 31.3333 29.0252 29.9213 29.6581 28H33.5416C34.3481 28 34.9999 27.4027 34.9999 26.6667C34.9999 25.9307 34.3481 25.3333 33.5417 25.3333ZM24.7917 28.6667C23.5856 28.6667 22.6042 27.7694 22.6042 26.6667C22.6042 25.564 23.5856 24.6667 24.7917 24.6667C25.9978 24.6667 26.9792 25.564 26.9792 26.6667C26.9792 27.7694 25.9977 28.6667 24.7917 28.6667Z" fill="#F9F5FF"/>
<path d="M33.5417 4.00001H29.6581C29.0252 2.07869 27.0958 0.666695 24.7917 0.666695C22.4876 0.666695 20.5581 2.07869 19.9252 4.00001H1.45831C0.653311 4.00001 0 4.59732 0 5.33332C0 6.06932 0.653311 6.66663 1.45831 6.66663H19.9252C20.5581 8.58801 22.4875 10 24.7917 10C27.0959 10 29.0253 8.58801 29.6581 6.66669H33.5417C34.3481 6.66669 35 6.06938 35 5.33338C35 4.59738 34.3481 4.00001 33.5417 4.00001ZM24.7917 7.33332C23.5856 7.33332 22.6042 6.43601 22.6042 5.33332C22.6042 4.23063 23.5856 3.33332 24.7917 3.33332C25.9978 3.33332 26.9792 4.23063 26.9792 5.33332C26.9792 6.43601 25.9977 7.33332 24.7917 7.33332Z" fill="#F9F5FF"/>
<path d="M33.5417 14.6667H15.0748C14.4419 12.7454 12.5125 11.3334 10.2084 11.3334C7.90426 11.3334 5.97481 12.7454 5.34194 14.6667H1.45831C0.653311 14.6667 0 15.264 0 16C0 16.736 0.653311 17.3333 1.45831 17.3333H5.34187C5.97481 19.2546 7.90419 20.6666 10.2083 20.6666C12.5124 20.6666 14.4419 19.2546 15.0747 17.3333H33.5416C34.3481 17.3333 34.9999 16.736 34.9999 16C35 15.264 34.3481 14.6667 33.5417 14.6667ZM10.2083 18C9.00225 18 8.02081 17.1027 8.02081 16C8.02081 14.8973 9.00225 14 10.2083 14C11.4144 14 12.3958 14.8973 12.3958 16C12.3958 17.1027 11.4144 18 10.2083 18Z" fill="#F9F5FF"/>
</svg>
