<svg width="230px" height="230px" viewBox="0 0 260 230" fill="none" xmlns="http://www.w3.org/2000/svg" >
<g filter="url(#filter0_di)">
<path d="M238.594 102.788C246.381 106.332 246.412 117.382 238.645 120.969L20.1145 221.888C13.4991 224.943 10 220.124 5.92194 212.838L5.36241 12.2189C5.34209 4.93217 12.8719 0.0710391 19.5043 3.08916L238.594 102.788Z" fill="#091E8D"/>
<path d="M238.855 121.423C247.01 117.656 246.978 106.054 238.802 102.333L19.7114 2.63407C12.7474 -0.534962 4.84107 4.56923 4.86241 12.2203L5.42194 212.839C5.44328 220.49 13.3779 225.55 20.3241 222.342L238.855 121.423Z" stroke="url(#paint0_radial)"/>
<path d="M238.855 121.423C247.01 117.656 246.978 106.054 238.802 102.333L19.7114 2.63407C12.7474 -0.534962 4.84107 4.56923 4.86241 12.2203L5.42194 212.839C5.44328 220.49 13.3779 225.55 20.3241 222.342L238.855 121.423Z" stroke="url(#paint1_radial)"/>
</g>
<defs>
<filter id="filter0_di" x="0.331699" y="0.537292" width="500" height="500" filterUnits="userSpaceOnUse" color-interpolation-filters="sRGB">
<feFlood flood-opacity="0" result="BackgroundImageFix"/>
<feColorMatrix in="SourceAlpha" type="matrix" values="0 0 0 0 0 0 0 0 0 0 0 0 0 0 0 0 0 0 127 0"/>
<feOffset dy="4"/>
<feGaussianBlur stdDeviation="2"/>
<feColorMatrix type="matrix" values="0 0 0 0 0 0 0 0 0 0 0 0 0 0 0 0 0 0 0.25 0"/>
<feBlend mode="normal" in2="BackgroundImageFix" result="effect1_dropShadow"/>
<feBlend mode="normal" in="SourceGraphic" in2="effect1_dropShadow" result="shape"/>
<feColorMatrix in="SourceAlpha" type="matrix" values="0 0 0 0 0 0 0 0 0 0 0 0 0 0 0 0 0 0 127 0" result="hardAlpha"/>
<feOffset dy="4"/>
<feGaussianBlur stdDeviation="2"/>
<feComposite in2="hardAlpha" operator="arithmetic" k2="-1" k3="1"/>
<feColorMatrix type="matrix" values="0 0 0 0 0 0 0 0 0 0 0 0 0 0 0 0 0 0 0.25 0"/>
<feBlend mode="normal" in2="shape" result="effect2_innerShadow"/>
</filter>
<radialGradient id="paint0_radial" cx="0" cy="0" r="1" gradientUnits="userSpaceOnUse" gradientTransform="translate(89.9111 112.293) rotate(179.84) scale(168.538 133.824)">
<stop offset="0.474135" stop-color="#FD0000"/>
<stop offset="0.8125" stop-color="#2300FD"/>
</radialGradient>
<radialGradient id="paint1_radial" cx="0" cy="0" r="1" gradientUnits="userSpaceOnUse" gradientTransform="translate(174 112) rotate(177.347) scale(205.22 162.95)">
<stop stop-color="#0014CB"/>
<stop offset="0.5625" stop-color="white" stop-opacity="0"/>
</radialGradient>
</defs>
</svg>
