<svg width="50" height="50" viewBox="0 0 58 58" fill="none" xmlns="http://www.w3.org/2000/svg">
<g filter="url(#filter0_d)">
<g clip-path="url(#clip0)">
<path d="M43.2857 28.5714C39.7415 28.5714 36.6183 30.321 34.6668 32.9801L24.9161 28.1036C25.218 27.1146 25.4286 26.0863 25.4286 24.9999C25.4286 23.9136 25.218 22.8851 24.9161 21.8963L34.6668 17.0198C36.6183 19.6789 39.7415 21.4285 43.2857 21.4285C49.1939 21.4285 54 16.6224 54 10.7142C54 4.80602 49.194 1.06674e-10 43.2857 0C37.3774 0 32.5714 4.80612 32.5714 10.7143C32.5714 11.8007 32.7822 12.8289 33.0841 13.8177L23.333 18.6945C21.3816 16.0353 18.2584 14.2858 14.7142 14.2858C8.80602 14.2858 4 19.0918 4 25.0001C4 30.9083 8.80602 35.7143 14.7143 35.7143C18.2585 35.7143 21.3817 33.9648 23.3332 31.3056L33.0839 36.1824C32.782 37.1711 32.5714 38.1993 32.5714 39.2858C32.5714 45.194 37.3774 50.0001 43.2857 50.0001C49.194 50.0001 54 45.194 54 39.2858C54 33.3776 49.1939 28.5714 43.2857 28.5714ZM43.2857 3.57147C47.2251 3.57147 50.4285 6.77672 50.4285 10.7143C50.4285 14.652 47.225 17.8571 43.2857 17.8571C39.3463 17.8571 36.1429 14.6519 36.1429 10.7143C36.1429 6.77672 39.3464 3.57147 43.2857 3.57147ZM14.7143 32.1429C10.7749 32.1429 7.57147 28.9376 7.57147 25.0001C7.57147 21.0624 10.775 17.8572 14.7143 17.8572C18.6537 17.8572 21.8571 21.0625 21.8571 25.0001C21.8571 28.9376 18.6537 32.1429 14.7143 32.1429ZM43.2857 46.4285C39.3463 46.4285 36.1429 43.2233 36.1429 39.2857C36.1429 35.3481 39.3464 32.1429 43.2857 32.1429C47.2251 32.1429 50.4285 35.3481 50.4285 39.2857C50.4285 43.2234 47.2251 46.4285 43.2857 46.4285Z" fill="#F4EDED"/>
</g>
</g>
<defs>
<filter id="filter0_d" x="0" y="0" width="58" height="58" filterUnits="userSpaceOnUse" color-interpolation-filters="sRGB">
<feFlood flood-opacity="0" result="BackgroundImageFix"/>
<feColorMatrix in="SourceAlpha" type="matrix" values="0 0 0 0 0 0 0 0 0 0 0 0 0 0 0 0 0 0 127 0"/>
<feOffset dy="4"/>
<feGaussianBlur stdDeviation="2"/>
<feColorMatrix type="matrix" values="0 0 0 0 0.905882 0 0 0 0 0.0392157 0 0 0 0 0.0392157 0 0 0 0.7 0"/>
<feBlend mode="normal" in2="BackgroundImageFix" result="effect1_dropShadow"/>
<feBlend mode="normal" in="SourceGraphic" in2="effect1_dropShadow" result="shape"/>
</filter>
<clipPath id="clip0">
<rect x="4" width="50" height="50" fill="white"/>
</clipPath>
</defs>
</svg>
