<?xml version="1.0" encoding="utf-8"?>
<!-- Generator: Adobe Illustrator 19.0.0, SVG Export Plug-In . SVG Version: 6.00 Build 0)  -->
<svg version="1.1" id="Layer_1" xmlns="http://www.w3.org/2000/svg" xmlns:xlink="http://www.w3.org/1999/xlink" x="0px" y="0px"
	fill="#F9F5FF" viewBox="0 0 500 500" style="enable-background:new 0 0 500 500;" xml:space="preserve">
<style type="text/css">
	.st0{fill:##F9F5FF;}
	.st1{fill:##F9F5FF;}
	.st2{fill:##F9F5FF;}
</style>
<g id="XMLID_1_">
	<path id="XMLID_5_" class="st0" d="M258.7,267.1c0,0.4-0.4,0.9-0.9,0.9h-15.9c-0.4,0-0.9-0.4-0.9-0.9v-11.5c0-0.4,0.4-0.9,0.9-0.9
		h15.9c0.4,0,0.9,0.4,0.9,0.9V267.1z M258,251.2l-16.2,0c-2.3,0-4.2,1.9-4.2,4.2v11.5c0,2.3,1.9,4.2,4.2,4.2H258
		c2.3,0,4.2-1.9,4.2-4.2v-11.5C262.2,253.1,260.3,251.2,258,251.2"/>
	<polygon id="XMLID_6_" class="st1" points="71.3,233.9 71.3,248.8 67.5,248.8 67.5,228.7 70.7,228.7 85.9,243.4 85.9,228.7 
		88.8,228.7 89.6,228.7 89.6,248.8 86.6,248.8 	"/>
	<polygon id="XMLID_7_" class="st1" points="108.8,233.9 108.8,248.8 105,248.8 105,228.7 108.3,228.7 123.4,243.4 123.4,228.7 
		126.4,228.7 127.1,228.7 127.1,248.8 124.2,248.8 	"/>
	<polygon id="XMLID_8_" class="st1" points="186.4,233.9 186.4,248.8 182.6,248.8 182.6,228.7 185.8,228.7 201,243.4 201,228.7 
		203.9,228.7 204.6,228.7 204.6,248.8 201.7,248.8 	"/>
	<polygon id="XMLID_9_" class="st1" points="98.5,228.7 99.2,228.7 99.2,248.8 95.4,248.8 95.4,228.7 	"/>
	<polygon id="XMLID_10_" class="st1" points="152.5,228.7 153.2,228.7 153.2,232.2 144.2,232.2 144.2,248.8 140.2,248.8 
		140.2,232.2 131.2,232.2 131.2,228.7 152.4,228.7 	"/>
	<polygon id="XMLID_11_" class="st1" points="176.3,228.7 177,228.7 177,232.2 161.1,232.2 161.1,236.7 173.5,236.7 173.5,240.2 
		161.1,240.2 161.1,245.5 177,245.5 177,249 157.3,249 157.3,228.8 176.3,228.8 	"/>
	<path id="XMLID_14_" class="st1" d="M225.4,245.3H214v-13.1h0.1h11.4c3.7,0,4.8,3.5,4.8,6.6s-1.3,6.6-4.8,6.6 M231.7,231.6
		c-1.5-1.9-3.7-2.9-6.3-2.9h-14.9v20.2h14.9c2.6,0,4.8-1,6.3-2.9c1.3-1.8,2-4.2,2-7.2C233.7,235.8,233,233.3,231.7,231.6"/>
	<path id="XMLID_17_" class="st1" d="M258.7,244.6c0,0.4-0.4,0.9-0.9,0.9h-15.9c-0.4,0-0.9-0.4-0.9-0.9v-11.5c0-0.4,0.4-0.9,0.9-0.9
		h15.9c0.4,0,0.9,0.4,0.9,0.9V244.6z M258,228.7h-16.2c-2.3,0-4.2,1.9-4.2,4.2v11.7c0,2.3,1.9,4.2,4.2,4.2H258
		c2.3,0,4.2-1.9,4.2-4.2v-11.7C262.2,230.6,260.3,228.7,258,228.7"/>
	<path id="XMLID_18_" class="st1" d="M379.2,263c3.8,1.5,12,2.8,18.4,2.8c7,0,9.9-2.3,9.9-5.4c0-2.6-2.6-4.2-10.4-7.2
		c-10.4-3.8-17.8-6.9-17.8-13.6c0-7,9.1-11.1,22.9-11.1c7.4,0,9.9,0.4,14.8,1.3v6.7c-4.7-0.9-8.8-2.3-15.2-2.3
		c-6.9,0-9.8,2.2-9.8,4.4c0,3.2,4.5,4.8,12.4,7.6c11,3.9,17.1,7,17.1,13.6c0,6.9-7.6,11.7-25,11.7c-7,0-12-0.4-17.4-1.3L379.2,263
		L379.2,263z"/>
	<path id="XMLID_21_" class="st1" d="M342.5,234.4h-8.2v31.1h8.2c12.6,0,20.6-5.4,20.6-15.5S355.2,234.4,342.5,234.4 M364.6,268.4
		c-4.1,1.9-11.7,3.1-18.4,3.1h-25.7v-42.8h25.7c6.7,0,14.5,1.2,18.5,3.1c9.9,4.5,13.1,11.5,13.1,18.4c0,6.7-3.2,13.9-13.1,18.4"/>
	<path id="XMLID_22_" class="st2" d="M302.4,248c0,0,12-1.9,12-9.3c0-7.3-12.7-10.2-26.3-10.2c-12.3,0-20.3,1.5-20.3,1.5v6.6
		c5.6-1.3,10.8-2.5,18.1-2.5c7.7,0,13.7,2.3,13.7,5.6c0,3.9-5.8,6.3-18.5,6.3h-5.8v6h5.4c13.3,0,20.9,2,20.9,6.9c0,4.4-6.7,7-15.2,7
		c-7.3,0-14-1.6-19.6-3.1v7.2c2.6,0.4,9.6,1.9,22.5,1.9c14.3,0,26.9-4.7,26.9-12.7c0-6.9-8.6-10.8-13.7-10.8"/>
	<polygon id="XMLID_23_" class="st1" points="425.1,265.5 423.7,265.5 423.7,264.8 427.2,264.8 427.2,265.5 425.9,265.5 
		425.9,269.6 425.1,269.6 	"/>
	<path id="XMLID_24_" class="st1" d="M431.8,267.7c0-0.6,0-1.3,0-2c-0.1,0.6-0.3,1.2-0.6,1.8l-0.7,2h-0.7l-0.6-2
		c-0.1-0.6-0.3-1.3-0.4-1.9c0,0.6,0,1.3-0.1,2l-0.1,1.9h-0.9l0.3-4.7h1.2l0.6,1.9c0.1,0.6,0.3,1.2,0.4,1.6c0.1-0.6,0.3-1.2,0.4-1.6
		l0.6-1.9h1.2l0.3,4.7h-0.9l-0.1-1.9L431.8,267.7z"/>
</g>
</svg>
