<svg width="94" height="91" viewBox="0 0 94 91" fill="none" xmlns="http://www.w3.org/2000/svg">
<g filter="url(#filter0_d)">
<g clip-path="url(#clip0)">
<path d="M89.9539 56.9502C89.7397 51.7363 88.8828 45.9558 87.5974 40.5152C86.312 35.3014 84.7052 30.4276 82.7771 26.6872C75.2789 12.7459 67.1381 14.8994 57.3905 17.6197C54.2841 18.4131 50.9634 19.3198 47.5357 19.6599H46.4645C43.0368 19.3198 39.7162 18.4131 36.6098 17.6197C26.8622 15.0127 18.7213 12.7459 11.2231 26.8006C9.29504 30.5409 7.58117 35.4147 6.40288 40.6286C5.11748 46.0691 4.26055 51.8497 4.04632 57.0635C3.83208 62.8441 4.36767 67.0378 5.54595 69.9848C6.72423 72.7051 8.4381 74.4052 10.6876 75.0853C12.7228 75.652 15.0793 75.4253 17.543 74.2919C21.7206 72.4784 26.5408 68.6247 31.254 63.9775C34.5746 60.5772 40.7874 58.877 47.0001 58.877C53.2129 58.877 59.4257 60.5772 62.7463 63.9775C67.4594 68.6247 72.2797 72.4784 76.4572 74.2919C78.9209 75.312 81.2775 75.652 83.3127 75.0853C85.455 74.4052 87.276 72.8184 88.4543 69.8715C89.6326 67.0378 90.1682 62.8441 89.9539 56.9502ZM84.8123 68.2846C84.1696 69.8715 83.3127 70.7782 82.2415 71.1182C81.0632 71.4583 79.5636 71.2316 77.8497 70.5515C74.1007 68.9647 69.7089 65.451 65.4242 61.1439C61.3538 56.8368 54.1769 54.6833 47.0001 54.6833C39.8233 54.6833 32.6465 56.8368 28.4689 60.9172C24.0771 65.2243 19.6854 68.8514 16.0434 70.3248C14.3295 71.0049 12.8299 71.3449 11.6516 70.8916C10.5804 70.5515 9.7235 69.6448 9.0808 68.0579C8.22387 65.9044 7.7954 62.3907 8.00963 57.1769C8.22387 52.3031 8.97369 46.7492 10.2591 41.5353C11.4374 36.6615 12.937 32.1278 14.758 28.7274C20.6494 17.5063 27.5049 19.3198 35.6458 21.5867C38.9664 22.4935 42.3941 23.4002 46.1432 23.7403C46.2503 23.7403 46.2503 23.7403 46.3574 23.7403H47.5357C47.6428 23.7403 47.6428 23.7403 47.7499 23.7403C51.6061 23.4002 55.0339 22.4935 58.3545 21.5867C66.4954 19.4332 73.3508 17.5063 79.2423 28.7274C81.0632 32.1278 82.5629 36.5482 83.7412 41.5353C84.9195 46.7492 85.7764 52.1897 85.9906 57.1769C86.2049 62.3907 85.7764 65.9044 84.8123 68.2846Z" fill="#F9F5FF"/>
<path d="M37.1454 34.848C36.0743 33.8279 34.7889 33.0345 33.2892 32.9212C33.1821 31.4477 32.5394 29.9742 31.5754 28.9541L31.4682 28.8408C30.29 27.594 28.7903 26.9139 27.0764 26.9139C25.3626 26.9139 23.7558 27.7073 22.6847 28.8408C21.7206 29.8609 20.9708 31.3343 20.8637 32.9212C19.364 33.0345 18.0786 33.7146 17.0075 34.7347L16.9004 34.848C15.7221 36.0948 15.0794 37.6816 15.0794 39.4951C15.0794 41.3087 15.8292 43.0088 16.9004 44.1423C17.9715 45.2757 19.2569 45.9558 20.8637 46.0691C20.9708 47.6559 21.6135 49.1294 22.6847 50.1495C23.8629 51.3963 25.3626 52.0764 27.0764 52.0764C28.7903 52.0764 30.3971 51.283 31.4682 50.1495C32.4323 49.0161 33.1821 47.6559 33.2892 46.0691C34.7889 45.9558 36.1814 45.2757 37.1454 44.1423C38.3237 42.8955 38.9664 41.3087 38.9664 39.4951C38.9664 37.6816 38.2166 35.9815 37.1454 34.848ZM34.4675 41.1953C34.039 41.6487 33.5035 41.8754 32.8608 41.8754H31.3611C30.29 41.8754 29.3259 42.7821 29.3259 44.0289V45.5024C29.3259 46.1825 29.1117 46.7492 28.6832 47.2026C28.2547 47.6559 27.7191 47.8826 27.0764 47.8826C26.4337 47.8826 25.8982 47.6559 25.4697 47.2026C25.0412 46.7492 24.827 46.1825 24.827 45.5024V43.9156C24.827 42.7821 23.9701 41.762 22.7918 41.762H21.2921C20.6494 41.762 20.1139 41.5353 19.6854 41.082C19.364 40.7419 19.0427 40.1752 19.0427 39.4951C19.0427 38.8151 19.2569 38.2484 19.6854 37.795C19.6854 37.795 19.6854 37.795 19.7925 37.6816C20.221 37.3416 20.7566 37.1149 21.2921 37.1149H22.7918C23.8629 37.1149 24.827 36.2082 24.827 34.9614V33.3745C24.827 32.6945 25.0412 32.1278 25.4697 31.6744C25.8982 31.221 26.4337 30.9943 27.0764 30.9943C27.7191 30.9943 28.2547 31.221 28.6832 31.6744C28.6832 31.6744 28.6832 31.6744 28.7903 31.7877C29.1117 32.2411 29.3259 32.8078 29.3259 33.3745V34.9614C29.3259 36.0948 30.1828 37.1149 31.3611 37.1149H32.8608C33.5035 37.1149 34.039 37.3416 34.4675 37.795C34.896 38.2484 35.1102 38.8151 35.1102 39.4951C35.1102 40.1752 34.896 40.7419 34.4675 41.1953Z" fill="#F9F5FF"/>
<path d="M65.6385 35.4148C67.709 35.4148 69.3875 33.6386 69.3875 31.4477C69.3875 29.2568 67.709 27.4807 65.6385 27.4807C63.5679 27.4807 61.8894 29.2568 61.8894 31.4477C61.8894 33.6386 63.5679 35.4148 65.6385 35.4148Z" fill="#F9F5FF"/>
<path d="M65.6385 51.5097C67.709 51.5097 69.3875 49.7336 69.3875 47.5426C69.3875 45.3517 67.709 43.5756 65.6385 43.5756C63.5679 43.5756 61.8894 45.3517 61.8894 47.5426C61.8894 49.7336 63.5679 51.5097 65.6385 51.5097Z" fill="#F9F5FF"/>
<path d="M58.0331 43.4622C60.1037 43.4622 61.7822 41.6861 61.7822 39.4952C61.7822 37.3042 60.1037 35.5281 58.0331 35.5281C55.9626 35.5281 54.2841 37.3042 54.2841 39.4952C54.2841 41.6861 55.9626 43.4622 58.0331 43.4622Z" fill="#F9F5FF"/>
<path d="M73.2437 43.4622C75.3143 43.4622 76.9928 41.6861 76.9928 39.4952C76.9928 37.3042 75.3143 35.5281 73.2437 35.5281C71.1732 35.5281 69.4947 37.3042 69.4947 39.4952C69.4947 41.6861 71.1732 43.4622 73.2437 43.4622Z" fill="#F9F5FF"/>
</g>
</g>
<defs>
<filter id="filter0_d" x="0" y="0" width="94" height="99" filterUnits="userSpaceOnUse" color-interpolation-filters="sRGB">
<feFlood flood-opacity="0" result="BackgroundImageFix"/>
<feColorMatrix in="SourceAlpha" type="matrix" values="0 0 0 0 0 0 0 0 0 0 0 0 0 0 0 0 0 0 127 0"/>
<feOffset dy="4"/>
<feGaussianBlur stdDeviation="2"/>
<feColorMatrix type="matrix" values="0 0 0 0 0.905882 0 0 0 0 0.0392157 0 0 0 0 0.0392157 0 0 0 0.9 0"/>
<feBlend mode="normal" in2="BackgroundImageFix" result="effect1_dropShadow"/>
<feBlend mode="normal" in="SourceGraphic" in2="effect1_dropShadow" result="shape"/>
</filter>
<clipPath id="clip0">
<rect x="4" width="86" height="91" fill="white"/>
</clipPath>
</defs>
</svg>
