<svg width="16" height="18" viewBox="0 0 16 18" fill="F9F5FF" xmlns="http://www.w3.org/2000/svg">
<path d="M9.09332 8.79311L15.586 1.58008C15.9114 1.2186 15.9114 0.632554 15.586 0.271109C15.2607 -0.0903698 14.7331 -0.0903698 14.4077 0.271109L7.915 7.48414L1.42229 0.271109C1.09691 -0.0903698 0.569386 -0.0903698 0.244036 0.271109C-0.0813143 0.632589 -0.0813452 1.21864 0.244036 1.58008L6.73675 8.79311L0.244036 16.0061C-0.0813452 16.3676 -0.0813452 16.9537 0.244036 17.3151C0.569417 17.6766 1.09694 17.6766 1.42229 17.3151L7.915 10.1021L14.4077 17.3151C14.7331 17.6766 15.2606 17.6766 15.586 17.3151C15.9113 16.9536 15.9113 16.3676 15.586 16.0061L9.09332 8.79311Z" fill="#828282"/>
</svg>
