<svg width="100" height="105" viewBox="0 0 100 105" fill="none" xmlns="http://www.w3.org/2000/svg">
<g filter="url(#filter0_d)">
<g clip-path="url(#clip0)">
<path d="M89.1863 12.9308L88.19 9.15335C87.0553 4.8515 82.3958 2.16751 77.9548 3.27039L62.2263 7.17361L61.6571 5.01558C60.7295 1.49888 56.913 -0.699132 53.2833 0.202542L37.1454 4.20712C33.5197 5.1069 31.2543 8.80871 32.1831 12.3298L32.7523 14.4878L25.1118 16.3838C24.0666 16.643 23.4363 17.675 23.7037 18.6889C23.9711 19.7027 25.0351 20.3143 26.0803 20.0547L61.3022 11.3142C61.303 11.314 78.9233 6.94132 78.9233 6.94132C81.3016 6.35189 83.7986 7.79127 84.4055 10.0925L84.9177 12.0344L15.2552 29.3216C15.2552 29.3216 14.6693 27.0599 14.6443 26.8831C14.4976 25.8462 13.512 25.1218 12.4435 25.2636C11.3747 25.4058 10.6274 26.3617 10.7741 27.3983C10.8188 27.7153 11.9548 32.0963 11.9548 32.0963C12.1806 32.9527 12.9748 33.5217 13.8458 33.5217C14.0061 33.5217 19.4608 32.1891 19.4608 32.1891L24.5766 82.7761C24.929 86.2961 27.9269 88.955 31.5645 88.9897V95.1053C31.5645 96.1516 32.4389 97 33.5177 97H73.2211C74.2999 97 75.1744 96.1516 75.1744 95.1053V88.9897C78.8119 88.9548 81.8098 86.296 82.162 82.778L84.7967 56.7305C84.9022 55.6891 84.1172 54.7619 83.0435 54.6598C81.9708 54.5595 81.014 55.3189 80.9088 56.3604L78.2738 82.4097C78.1144 84.0014 76.751 85.2019 75.1023 85.2019H31.6362C29.9876 85.2019 28.624 84.0014 28.4644 82.4078L23.2898 31.2388L24.2561 30.9991H83.474L82.587 39.768C82.4815 40.8093 83.2666 41.7366 84.3403 41.8387C85.4118 41.9387 86.3695 41.1796 86.475 40.1381L87.5723 29.2894C87.6825 28.2012 86.7588 27.2096 85.6284 27.2096H83.1829L82.7261 26.289C80.9517 22.7116 77.1089 20.3675 73.0146 20.3675C71.5532 20.3675 70.071 20.4611 68.6688 19.9776L87.778 15.2354C88.8002 14.9821 89.4483 13.9243 89.1863 12.9308V12.9308ZM36.2906 9.20337C36.6959 8.54005 37.3432 8.06941 38.1134 7.87824L54.2513 3.87347C54.4974 3.81246 54.7467 3.78234 54.9941 3.78234C55.5213 3.78234 56.0407 3.91932 56.5062 4.18685C57.19 4.57999 57.6752 5.20789 57.8723 5.95496L58.4415 8.1128L36.5367 13.5486L35.9675 11.3906C35.7706 10.6433 35.8853 9.86669 36.2906 9.20337V9.20337ZM71.2678 93.2107H35.471V88.992H71.2678V93.2107ZM73.0146 24.1573C75.3234 24.1573 77.538 25.3272 78.7887 27.2094H39.5449L60.2527 22.0769C61.7855 21.6915 63.4207 21.8336 64.8583 22.4774V22.4776L66.4577 23.194C68.5651 24.1379 70.7529 24.1573 73.0146 24.1573V24.1573Z" fill="#F9F5FF"/>
<path d="M70.2199 69.1919C71.2188 67.514 71.2188 65.51 70.2199 63.8319L66.6892 57.9C66.1499 56.994 64.955 56.6831 64.021 57.2066C63.0867 57.7299 62.7666 58.8885 63.3061 59.7947L66.8368 65.7266C67.4589 66.7718 66.6577 68.0826 65.4346 68.0826H61.9019L61.9779 67.9835C62.6213 67.1436 62.4408 65.9568 61.5749 65.3326C60.709 64.7087 59.4857 64.8836 58.8421 65.7235L56.4493 68.8473C55.9444 69.506 55.9423 70.435 56.4415 71.097L58.8011 74.2205C59.1837 74.7272 59.7769 74.9957 60.3783 74.9957C60.779 74.9957 61.1833 74.8763 61.5312 74.629C62.4013 74.0104 62.5898 72.8249 61.9523 71.9809L61.8699 71.8717H65.4346C67.4322 71.8717 69.221 70.8698 70.2199 69.1919V69.1919Z" fill="#F9F5FF"/>
<path d="M37.1305 69.1919C38.1294 70.87 39.9182 71.8719 41.9158 71.8719H49.4648C50.5436 71.8719 51.4181 71.0235 51.4181 69.9773C51.4181 68.931 50.5436 68.0826 49.4648 68.0826H41.9158C40.6929 68.0826 39.8916 66.7719 40.5138 65.7266L42.3397 62.6589L42.3737 62.7356C42.6911 63.4543 43.412 63.8848 44.1701 63.8848C44.4266 63.8848 44.6875 63.8353 44.9383 63.7311C45.93 63.3188 46.3894 62.2051 45.9646 61.2434L44.3943 57.6878C44.0609 56.9328 43.2333 56.4645 42.3918 56.5501L38.3964 56.9633C37.3237 57.0742 36.5469 58.0077 36.6611 59.0482C36.7754 60.0884 37.7376 60.8432 38.8105 60.7313L38.9869 60.7131L37.1307 63.8319C36.1316 65.51 36.1316 67.5138 37.1305 69.1919V69.1919Z" fill="#F9F5FF"/>
<path d="M54.8652 50.7395C54.6904 51.7721 55.4115 52.7465 56.4763 52.9161L60.4111 53.5429C61.2495 53.6757 62.1107 53.2456 62.4841 52.5017L64.2649 49.0261C64.745 48.0892 64.3511 46.952 63.3852 46.4863C62.4189 46.0202 61.2467 46.4028 60.7666 47.3399L60.5988 47.6675L58.4606 44.075C56.372 40.5661 50.9796 40.5645 48.89 44.075L45.1414 50.3729C44.602 51.2791 44.9221 52.4377 45.8563 52.961C46.7908 53.4845 47.9852 53.174 48.5245 52.2675L52.273 45.9697C52.8891 44.9348 54.4615 44.9348 55.0773 45.9697L56.9777 49.1624C55.9633 49.0684 55.0328 49.7495 54.8652 50.7395Z" fill="#F9F5FF"/>
<path d="M85.5027 47.4581C85.0935 46.5062 83.9359 46.0367 82.9517 46.4331C81.9686 46.8289 81.4877 47.9534 81.895 48.9077C82.3018 49.8609 83.4629 50.3289 84.4459 49.9328C85.4273 49.5371 85.9119 48.4119 85.5027 47.4581Z" fill="#F9F5FF"/>
<path d="M19.311 19.5013C18.9018 18.5494 17.7443 18.0799 16.76 18.4763C15.777 18.8721 15.2961 19.9966 15.7033 20.9509C16.1102 21.9041 17.2712 22.3721 18.2543 21.9759C19.2356 21.5803 19.7202 20.4551 19.311 19.5013V19.5013Z" fill="#F9F5FF"/>
</g>
</g>
<defs>
<filter id="filter0_d" x="-4" y="0" width="108" height="105" filterUnits="userSpaceOnUse" color-interpolation-filters="sRGB">
<feFlood flood-opacity="0" result="BackgroundImageFix"/>
<feColorMatrix in="SourceAlpha" type="matrix" values="0 0 0 0 0 0 0 0 0 0 0 0 0 0 0 0 0 0 127 0"/>
<feOffset dy="4"/>
<feGaussianBlur stdDeviation="2"/>
<feColorMatrix type="matrix" values="0 0 0 0 0.905882 0 0 0 0 0.0392157 0 0 0 0 0.0392157 0 0 0 0.9 0"/>
<feBlend mode="normal" in2="BackgroundImageFix" result="effect1_dropShadow"/>
<feBlend mode="normal" in="SourceGraphic" in2="effect1_dropShadow" result="shape"/>
</filter>
<clipPath id="clip0">
<rect width="100" height="97" fill="white"/>
</clipPath>
</defs>
</svg>
